<svg id="visual" viewBox="0 0 1349 612" width="1349" height="612" xmlns="http://www.w3.org/2000/svg" xmlns:xlink="http://www.w3.org/1999/xlink" version="1.1"><rect x="0" y="0" width="1349" height="612" fill="#fff"></rect><defs><linearGradient id="grad1_0" x1="54.6%" y1="0%" x2="100%" y2="100%"><stop offset="5.915032679738559%" stop-color="#ffffff" stop-opacity="1"></stop><stop offset="94.08496732026146%" stop-color="#ffffff" stop-opacity="1"></stop></linearGradient></defs><defs><linearGradient id="grad2_0" x1="0%" y1="0%" x2="45.4%" y2="100%"><stop offset="5.915032679738559%" stop-color="#ffffff" stop-opacity="1"></stop><stop offset="94.08496732026146%" stop-color="#ffffff" stop-opacity="1"></stop></linearGradient></defs><g transform="translate(1349, 0)"><path d="M0 550.8C-82.3 553.3 -164.6 555.7 -210.8 508.9C-257 462 -267.1 365.8 -311.1 311.1C-355.1 256.4 -433 243.2 -478.6 198.2C-524.2 153.3 -537.5 76.6 -550.8 0L0 0Z" fill="#FB9400"></path></g><g transform="translate(0, 612)"><path d="M0 -550.8C67.4 -538.2 134.8 -525.5 208.6 -503.5C282.3 -481.5 362.5 -450.1 389.5 -389.5C416.5 -328.8 390.3 -238.9 408.4 -169.1C426.4 -99.4 488.6 -49.7 550.8 0L0 0Z" fill="#FB9400"></path></g></svg>