<svg id="visual" viewBox="0 0 1349 469" width="1349" height="469" xmlns="http://www.w3.org/2000/svg" xmlns:xlink="http://www.w3.org/1999/xlink" version="1.1"><rect x="0" y="0" width="1349" height="469" fill="#FFFFFF"></rect><path d="M0 236L32.2 227.7C64.3 219.3 128.7 202.7 192.8 207C257 211.3 321 236.7 385.2 237.8C449.3 239 513.7 216 578 211.3C642.3 206.7 706.7 220.3 771 220.8C835.3 221.3 899.7 208.7 963.8 216C1028 223.3 1092 250.7 1156.2 244.3C1220.3 238 1284.7 198 1316.8 178L1349 158L1349 470L1316.8 470C1284.7 470 1220.3 470 1156.2 470C1092 470 1028 470 963.8 470C899.7 470 835.3 470 771 470C706.7 470 642.3 470 578 470C513.7 470 449.3 470 385.2 470C321 470 257 470 192.8 470C128.7 470 64.3 470 32.2 470L0 470Z" fill="#fbbc64"></path><path d="M0 305L32.2 292.7C64.3 280.3 128.7 255.7 192.8 241.7C257 227.7 321 224.3 385.2 237C449.3 249.7 513.7 278.3 578 283.3C642.3 288.3 706.7 269.7 771 260.8C835.3 252 899.7 253 963.8 260.5C1028 268 1092 282 1156.2 287.7C1220.3 293.3 1284.7 290.7 1316.8 289.3L1349 288L1349 470L1316.8 470C1284.7 470 1220.3 470 1156.2 470C1092 470 1028 470 963.8 470C899.7 470 835.3 470 771 470C706.7 470 642.3 470 578 470C513.7 470 449.3 470 385.2 470C321 470 257 470 192.8 470C128.7 470 64.3 470 32.2 470L0 470Z" fill="#fbb351"></path><path d="M0 328L32.2 330.5C64.3 333 128.7 338 192.8 328C257 318 321 293 385.2 287.7C449.3 282.3 513.7 296.7 578 310.3C642.3 324 706.7 337 771 342.3C835.3 347.7 899.7 345.3 963.8 336.2C1028 327 1092 311 1156.2 312.2C1220.3 313.3 1284.7 331.7 1316.8 340.8L1349 350L1349 470L1316.8 470C1284.7 470 1220.3 470 1156.2 470C1092 470 1028 470 963.8 470C899.7 470 835.3 470 771 470C706.7 470 642.3 470 578 470C513.7 470 449.3 470 385.2 470C321 470 257 470 192.8 470C128.7 470 64.3 470 32.2 470L0 470Z" fill="#fba93d"></path><path d="M0 331L32.2 336.3C64.3 341.7 128.7 352.3 192.8 362.8C257 373.3 321 383.7 385.2 389.2C449.3 394.7 513.7 395.3 578 394.3C642.3 393.3 706.7 390.7 771 389C835.3 387.3 899.7 386.7 963.8 379.2C1028 371.7 1092 357.3 1156.2 357.5C1220.3 357.7 1284.7 372.3 1316.8 379.7L1349 387L1349 470L1316.8 470C1284.7 470 1220.3 470 1156.2 470C1092 470 1028 470 963.8 470C899.7 470 835.3 470 771 470C706.7 470 642.3 470 578 470C513.7 470 449.3 470 385.2 470C321 470 257 470 192.8 470C128.7 470 64.3 470 32.2 470L0 470Z" fill="#fb9f26"></path><path d="M0 423L32.2 415.5C64.3 408 128.7 393 192.8 389.2C257 385.3 321 392.7 385.2 398.5C449.3 404.3 513.7 408.7 578 406.8C642.3 405 706.7 397 771 393C835.3 389 899.7 389 963.8 389.5C1028 390 1092 391 1156.2 397.2C1220.3 403.3 1284.7 414.7 1316.8 420.3L1349 426L1349 470L1316.8 470C1284.7 470 1220.3 470 1156.2 470C1092 470 1028 470 963.8 470C899.7 470 835.3 470 771 470C706.7 470 642.3 470 578 470C513.7 470 449.3 470 385.2 470C321 470 257 470 192.8 470C128.7 470 64.3 470 32.2 470L0 470Z" fill="#fb9400"></path></svg>