<svg id="visual" viewBox="0 0 1920 760" width="1920" height="760" xmlns="http://www.w3.org/2000/svg" xmlns:xlink="http://www.w3.org/1999/xlink" version="1.1"><rect x="0" y="0" width="1920" height="760" fill="#FFFFFF"></rect><path d="M0 319L45.7 319.5C91.3 320 182.7 321 274.2 337.7C365.7 354.3 457.3 386.7 548.8 399.8C640.3 413 731.7 407 823 407.7C914.3 408.3 1005.7 415.7 1097 398.7C1188.3 381.7 1279.7 340.3 1371.2 339.7C1462.7 339 1554.3 379 1645.8 395.7C1737.3 412.3 1828.7 405.7 1874.3 402.3L1920 399L1920 0L1874.3 0C1828.7 0 1737.3 0 1645.8 0C1554.3 0 1462.7 0 1371.2 0C1279.7 0 1188.3 0 1097 0C1005.7 0 914.3 0 823 0C731.7 0 640.3 0 548.8 0C457.3 0 365.7 0 274.2 0C182.7 0 91.3 0 45.7 0L0 0Z" fill="#f8ba64"></path><path d="M0 252L45.7 263C91.3 274 182.7 296 274.2 292.8C365.7 289.7 457.3 261.3 548.8 256.8C640.3 252.3 731.7 271.7 823 273.5C914.3 275.3 1005.7 259.7 1097 262.5C1188.3 265.3 1279.7 286.7 1371.2 290.2C1462.7 293.7 1554.3 279.3 1645.8 284.8C1737.3 290.3 1828.7 315.7 1874.3 328.3L1920 341L1920 0L1874.3 0C1828.7 0 1737.3 0 1645.8 0C1554.3 0 1462.7 0 1371.2 0C1279.7 0 1188.3 0 1097 0C1005.7 0 914.3 0 823 0C731.7 0 640.3 0 548.8 0C457.3 0 365.7 0 274.2 0C182.7 0 91.3 0 45.7 0L0 0Z" fill="#f8b151"></path><path d="M0 204L45.7 201.2C91.3 198.3 182.7 192.7 274.2 189.7C365.7 186.7 457.3 186.3 548.8 193.5C640.3 200.7 731.7 215.3 823 225.7C914.3 236 1005.7 242 1097 233C1188.3 224 1279.7 200 1371.2 196.8C1462.7 193.7 1554.3 211.3 1645.8 222.7C1737.3 234 1828.7 239 1874.3 241.5L1920 244L1920 0L1874.3 0C1828.7 0 1737.3 0 1645.8 0C1554.3 0 1462.7 0 1371.2 0C1279.7 0 1188.3 0 1097 0C1005.7 0 914.3 0 823 0C731.7 0 640.3 0 548.8 0C457.3 0 365.7 0 274.2 0C182.7 0 91.3 0 45.7 0L0 0Z" fill="#f9a83d"></path><path d="M0 149L45.7 150.2C91.3 151.3 182.7 153.7 274.2 149C365.7 144.3 457.3 132.7 548.8 138.2C640.3 143.7 731.7 166.3 823 166.5C914.3 166.7 1005.7 144.3 1097 136C1188.3 127.7 1279.7 133.3 1371.2 135.5C1462.7 137.7 1554.3 136.3 1645.8 142.2C1737.3 148 1828.7 161 1874.3 167.5L1920 174L1920 0L1874.3 0C1828.7 0 1737.3 0 1645.8 0C1554.3 0 1462.7 0 1371.2 0C1279.7 0 1188.3 0 1097 0C1005.7 0 914.3 0 823 0C731.7 0 640.3 0 548.8 0C457.3 0 365.7 0 274.2 0C182.7 0 91.3 0 45.7 0L0 0Z" fill="#fa9e26"></path><path d="M0 78L45.7 78.3C91.3 78.7 182.7 79.3 274.2 81.7C365.7 84 457.3 88 548.8 86.8C640.3 85.7 731.7 79.3 823 84.3C914.3 89.3 1005.7 105.7 1097 104.7C1188.3 103.7 1279.7 85.3 1371.2 81.2C1462.7 77 1554.3 87 1645.8 89.7C1737.3 92.3 1828.7 87.7 1874.3 85.3L1920 83L1920 0L1874.3 0C1828.7 0 1737.3 0 1645.8 0C1554.3 0 1462.7 0 1371.2 0C1279.7 0 1188.3 0 1097 0C1005.7 0 914.3 0 823 0C731.7 0 640.3 0 548.8 0C457.3 0 365.7 0 274.2 0C182.7 0 91.3 0 45.7 0L0 0Z" fill="#fb9400"></path></svg>