<svg id="visual" viewBox="0 0 1366 760" width="1366" height="760" xmlns="http://www.w3.org/2000/svg" xmlns:xlink="http://www.w3.org/1999/xlink" version="1.1"><rect x="0" y="0" width="1366" height="760" fill="#FFFFFF"></rect><path d="M0 319L32.5 319.5C65 320 130 321 195 337.7C260 354.3 325 386.7 390 399.8C455 413 520 407 585.2 407.7C650.3 408.3 715.7 415.7 780.8 398.7C846 381.7 911 340.3 976 339.7C1041 339 1106 379 1171 395.7C1236 412.3 1301 405.7 1333.5 402.3L1366 399L1366 0L1333.5 0C1301 0 1236 0 1171 0C1106 0 1041 0 976 0C911 0 846 0 780.8 0C715.7 0 650.3 0 585.2 0C520 0 455 0 390 0C325 0 260 0 195 0C130 0 65 0 32.5 0L0 0Z" fill="#f8ba64"></path><path d="M0 252L32.5 263C65 274 130 296 195 292.8C260 289.7 325 261.3 390 256.8C455 252.3 520 271.7 585.2 273.5C650.3 275.3 715.7 259.7 780.8 262.5C846 265.3 911 286.7 976 290.2C1041 293.7 1106 279.3 1171 284.8C1236 290.3 1301 315.7 1333.5 328.3L1366 341L1366 0L1333.5 0C1301 0 1236 0 1171 0C1106 0 1041 0 976 0C911 0 846 0 780.8 0C715.7 0 650.3 0 585.2 0C520 0 455 0 390 0C325 0 260 0 195 0C130 0 65 0 32.5 0L0 0Z" fill="#f8b151"></path><path d="M0 204L32.5 201.2C65 198.3 130 192.7 195 189.7C260 186.7 325 186.3 390 193.5C455 200.7 520 215.3 585.2 225.7C650.3 236 715.7 242 780.8 233C846 224 911 200 976 196.8C1041 193.7 1106 211.3 1171 222.7C1236 234 1301 239 1333.5 241.5L1366 244L1366 0L1333.5 0C1301 0 1236 0 1171 0C1106 0 1041 0 976 0C911 0 846 0 780.8 0C715.7 0 650.3 0 585.2 0C520 0 455 0 390 0C325 0 260 0 195 0C130 0 65 0 32.5 0L0 0Z" fill="#f9a83d"></path><path d="M0 149L32.5 150.2C65 151.3 130 153.7 195 149C260 144.3 325 132.7 390 138.2C455 143.7 520 166.3 585.2 166.5C650.3 166.7 715.7 144.3 780.8 136C846 127.7 911 133.3 976 135.5C1041 137.7 1106 136.3 1171 142.2C1236 148 1301 161 1333.5 167.5L1366 174L1366 0L1333.5 0C1301 0 1236 0 1171 0C1106 0 1041 0 976 0C911 0 846 0 780.8 0C715.7 0 650.3 0 585.2 0C520 0 455 0 390 0C325 0 260 0 195 0C130 0 65 0 32.5 0L0 0Z" fill="#fa9e26"></path><path d="M0 78L32.5 78.3C65 78.7 130 79.3 195 81.7C260 84 325 88 390 86.8C455 85.7 520 79.3 585.2 84.3C650.3 89.3 715.7 105.7 780.8 104.7C846 103.7 911 85.3 976 81.2C1041 77 1106 87 1171 89.7C1236 92.3 1301 87.7 1333.5 85.3L1366 83L1366 0L1333.5 0C1301 0 1236 0 1171 0C1106 0 1041 0 976 0C911 0 846 0 780.8 0C715.7 0 650.3 0 585.2 0C520 0 455 0 390 0C325 0 260 0 195 0C130 0 65 0 32.5 0L0 0Z" fill="#fb9400"></path></svg>